<?xml version="1.0" encoding="utf-8"?>
<!-- Generator: Adobe Illustrator 15.1.0, SVG Export Plug-In . SVG Version: 6.00 Build 0)  -->
<!DOCTYPE svg PUBLIC "-//W3C//DTD SVG 1.1//EN" "http://www.w3.org/Graphics/SVG/1.1/DTD/svg11.dtd">
<svg version="1.1" id="Layer_1" xmlns="http://www.w3.org/2000/svg" xmlns:xlink="http://www.w3.org/1999/xlink" x="0px" y="0px"
	 width="950.999px" height="82.607px" viewBox="0 0 950.999 82.607" enable-background="new 0 0 950.999 82.607"
	 xml:space="preserve">
<linearGradient id="SVGID_1_" gradientUnits="userSpaceOnUse" x1="0" y1="54.6069" x2="950.999" y2="54.6069">
	<stop  offset="0" style="stop-color:#1E3160"/>
	<stop  offset="1" style="stop-color:#0C7EB2"/>
</linearGradient>
<rect y="26.607" fill="url(#SVGID_1_)" width="950.999" height="56"/>
<g opacity="0.65">
	<path fill="#FFFFFF" d="M655.635,52.343c0-4.207-0.165-7.506-0.33-10.806h6.352l0.33,6.517h0.247
		c2.228-3.794,5.939-7.341,12.621-7.341c5.362,0,9.486,3.299,11.218,8.001h0.166c1.236-2.31,2.887-3.959,4.537-5.197
		c2.392-1.815,4.949-2.805,8.743-2.805c5.362,0,13.198,3.464,13.198,17.323v23.427h-7.094v-22.52c0-7.754-2.887-12.291-8.662-12.291
		c-4.207,0-7.341,3.052-8.66,6.517c-0.33,1.073-0.578,2.31-0.578,3.63v24.664h-7.094V57.54c0-6.352-2.805-10.889-8.332-10.889
		c-4.454,0-7.836,3.63-8.99,7.259c-0.413,0.99-0.578,2.31-0.578,3.547v24.004h-7.094V52.343z"/>
	<path fill="#FFFFFF" d="M752.355,71.893c0,3.465,0.165,6.847,0.578,9.569h-6.518l-0.577-5.032h-0.247
		c-2.228,3.134-6.518,5.939-12.209,5.939c-8.084,0-12.208-5.691-12.208-11.466c0-9.651,8.579-14.931,24.005-14.848V55.23
		c0-3.217-0.908-9.239-9.074-9.156c-3.795,0-7.672,1.072-10.477,2.97l-1.649-4.867c3.3-2.062,8.167-3.464,13.198-3.464
		c12.208,0,15.178,8.332,15.178,16.25V71.893z M745.344,61.086c-7.918-0.165-16.91,1.237-16.91,8.992
		c0,4.784,3.135,6.929,6.764,6.929c5.279,0,8.662-3.299,9.816-6.682c0.248-0.825,0.33-1.649,0.33-2.31V61.086z"/>
	<path fill="#FFFFFF" d="M772.18,31.968v9.568h10.393v5.527H772.18v21.53c0,4.949,1.402,7.754,5.443,7.754
		c1.98,0,3.135-0.165,4.207-0.495l0.33,5.527c-1.402,0.495-3.629,0.99-6.434,0.99c-3.383,0-6.104-1.155-7.837-3.052
		c-1.979-2.228-2.805-5.774-2.805-10.476V47.063h-6.187v-5.527h6.187v-7.424L772.18,31.968z"/>
	<path fill="#FFFFFF" d="M801.57,31.968v9.568h10.394v5.527H801.57v21.53c0,4.949,1.402,7.754,5.444,7.754
		c1.979,0,3.134-0.165,4.206-0.495l0.33,5.527c-1.402,0.495-3.629,0.99-6.434,0.99c-3.382,0-6.104-1.155-7.836-3.052
		c-1.98-2.228-2.805-5.774-2.805-10.476V47.063h-6.188v-5.527h6.188v-7.424L801.57,31.968z"/>
	<path fill="#FFFFFF" d="M823.314,62.819c0.166,9.816,6.353,13.858,13.693,13.858c5.197,0,8.414-0.908,11.055-2.062l1.319,5.197
		c-2.558,1.155-7.012,2.557-13.363,2.557c-12.291,0-19.632-8.166-19.632-20.209s7.094-21.447,18.725-21.447
		c13.115,0,16.498,11.383,16.498,18.725c0,1.485-0.083,2.557-0.248,3.382H823.314z M844.598,57.622
		c0.082-4.537-1.897-11.713-10.064-11.713c-7.424,0-10.559,6.682-11.136,11.713H844.598z"/>
	<path fill="#FFFFFF" d="M860.691,53.993c0-4.702-0.082-8.744-0.33-12.456h6.352l0.33,7.919h0.248
		c1.814-5.362,6.27-8.744,11.136-8.744c0.742,0,1.319,0.083,1.979,0.165v6.847c-0.742-0.165-1.484-0.165-2.475-0.165
		c-5.114,0-8.744,3.794-9.733,9.239c-0.165,0.99-0.247,2.227-0.247,3.382v21.282h-7.26V53.993z"/>
	<path fill="#FFFFFF" d="M887.312,74.12c2.228,1.32,6.022,2.804,9.651,2.804c5.197,0,7.672-2.557,7.672-5.939
		c0-3.464-2.062-5.279-7.342-7.259c-7.26-2.64-10.641-6.517-10.641-11.301c0-6.434,5.279-11.713,13.775-11.713
		c4.041,0,7.588,1.072,9.733,2.475l-1.732,5.279c-1.567-0.99-4.454-2.392-8.167-2.392c-4.289,0-6.599,2.475-6.599,5.444
		c0,3.299,2.31,4.784,7.507,6.847c6.846,2.557,10.477,6.021,10.477,11.96c0,7.094-5.527,12.043-14.849,12.043
		c-4.372,0-8.414-1.155-11.218-2.805L887.312,74.12z"/>
</g>
<g>
	<path fill="#FFFFFF" d="M102.527,56.031c-0.183-3.447-0.403-7.626-0.403-10.67h-0.073c-0.88,2.86-1.87,5.977-3.117,9.387
		l-4.363,11.99h-2.42l-4.033-11.77c-1.173-3.52-2.127-6.674-2.824-9.607h-0.073c-0.073,3.08-0.257,7.187-0.477,10.927l-0.66,10.597
		h-3.043l1.724-24.713h4.07l4.217,11.953c1.027,3.043,1.833,5.757,2.493,8.324h0.074c0.66-2.494,1.54-5.207,2.64-8.324l4.4-11.953
		h4.07l1.54,24.713h-3.153L102.527,56.031z"/>
	<path fill="#FFFFFF" d="M124.059,62.631c0,1.54,0.073,3.043,0.256,4.253h-2.896l-0.257-2.237h-0.11
		c-0.99,1.394-2.896,2.64-5.427,2.64c-3.593,0-5.427-2.53-5.427-5.097c0-4.29,3.813-6.637,10.67-6.6v-0.367
		c0-1.43-0.403-4.106-4.034-4.07c-1.687,0-3.41,0.477-4.657,1.32l-0.733-2.163c1.467-0.917,3.63-1.54,5.867-1.54
		c5.427,0,6.747,3.703,6.747,7.223V62.631z M120.942,57.828c-3.52-0.073-7.517,0.55-7.517,3.997c0,2.126,1.393,3.08,3.006,3.08
		c2.347,0,3.85-1.467,4.363-2.97c0.11-0.367,0.147-0.733,0.147-1.026V57.828z"/>
	<path fill="#FFFFFF" d="M144.99,40.851v21.45c0,1.577,0.073,3.374,0.146,4.583h-2.86l-0.146-3.08h-0.11
		c-0.953,1.98-3.08,3.483-5.977,3.483c-4.29,0-7.626-3.63-7.626-9.02c-0.037-5.903,3.667-9.497,7.957-9.497
		c2.75,0,4.547,1.283,5.354,2.677h0.073V40.851H144.99z M141.8,56.361c0-0.403-0.037-0.953-0.147-1.356
		c-0.477-2.017-2.236-3.704-4.656-3.704c-3.337,0-5.317,2.934-5.317,6.82c0,3.593,1.796,6.563,5.243,6.563
		c2.164,0,4.144-1.466,4.73-3.85c0.11-0.44,0.147-0.88,0.147-1.394V56.361z"/>
	<path fill="#FFFFFF" d="M154.211,44.151c0,1.1-0.77,1.98-2.053,1.98c-1.173,0-1.943-0.88-1.943-1.98s0.807-2.017,2.017-2.017
		C153.404,42.134,154.211,43.014,154.211,44.151z M150.618,66.884V49.138h3.227v17.747H150.618z"/>
	<path fill="#FFFFFF" d="M158.773,63.621c0.99,0.586,2.677,1.247,4.29,1.247c2.31,0,3.41-1.137,3.41-2.64
		c0-1.54-0.917-2.347-3.263-3.227c-3.227-1.173-4.73-2.897-4.73-5.023c0-2.86,2.347-5.207,6.124-5.207
		c1.796,0,3.373,0.477,4.327,1.1l-0.77,2.347c-0.697-0.44-1.98-1.063-3.63-1.063c-1.906,0-2.933,1.1-2.933,2.42
		c0,1.467,1.027,2.126,3.336,3.043c3.043,1.137,4.657,2.677,4.657,5.316c0,3.153-2.457,5.354-6.6,5.354
		c-1.943,0-3.74-0.513-4.987-1.247L158.773,63.621z"/>
	<path fill="#FFFFFF" d="M190.261,57.864c0,6.563-4.583,9.423-8.837,9.423c-4.767,0-8.506-3.52-8.506-9.13
		c0-5.903,3.923-9.387,8.8-9.387C186.814,48.771,190.261,52.474,190.261,57.864z M176.218,58.047c0,3.887,2.2,6.82,5.354,6.82
		c3.08,0,5.39-2.897,5.39-6.894c0-3.006-1.503-6.783-5.316-6.783C177.868,51.191,176.218,54.711,176.218,58.047z"/>
	<path fill="#FFFFFF" d="M194.774,53.941c0-1.87-0.037-3.337-0.147-4.803h2.86l0.183,2.933h0.073c0.88-1.65,2.934-3.3,5.867-3.3
		c2.457,0,6.27,1.466,6.27,7.553v10.56h-3.227v-10.23c0-2.86-1.063-5.244-4.106-5.244c-2.09,0-3.74,1.503-4.327,3.3
		c-0.147,0.403-0.22,0.953-0.22,1.503v10.67h-3.227V53.941z"/>
	<path fill="#FFFFFF" d="M242.078,66.114c-1.137,0.587-3.52,1.173-6.527,1.173c-6.966,0-12.173-4.4-12.173-12.54
		c0-7.773,5.244-12.98,12.907-12.98c3.043,0,5.023,0.66,5.867,1.1l-0.807,2.603c-1.173-0.586-2.896-1.026-4.95-1.026
		c-5.793,0-9.644,3.703-9.644,10.193c0,6.086,3.483,9.937,9.46,9.937c1.98,0,3.96-0.403,5.244-1.027L242.078,66.114z"/>
	<path fill="#FFFFFF" d="M261.899,57.864c0,6.563-4.583,9.423-8.837,9.423c-4.767,0-8.506-3.52-8.506-9.13
		c0-5.903,3.923-9.387,8.8-9.387C258.452,48.771,261.899,52.474,261.899,57.864z M247.855,58.047c0,3.887,2.2,6.82,5.354,6.82
		c3.08,0,5.39-2.897,5.39-6.894c0-3.006-1.503-6.783-5.316-6.783C249.505,51.191,247.855,54.711,247.855,58.047z"/>
	<path fill="#FFFFFF" d="M266.493,40.851h3.227v26.034h-3.227V40.851z"/>
	<path fill="#FFFFFF" d="M275.305,40.851h3.227v26.034h-3.227V40.851z"/>
	<path fill="#FFFFFF" d="M286.199,58.598c0.074,4.363,2.824,6.16,6.087,6.16c2.31,0,3.74-0.403,4.914-0.917l0.586,2.31
		c-1.137,0.513-3.117,1.137-5.94,1.137c-5.463,0-8.727-3.63-8.727-8.983s3.153-9.533,8.323-9.533c5.83,0,7.333,5.06,7.333,8.323
		c0,0.66-0.037,1.137-0.11,1.503H286.199z M295.659,56.288c0.037-2.017-0.844-5.207-4.474-5.207c-3.3,0-4.693,2.97-4.95,5.207
		H295.659z"/>
	<path fill="#FFFFFF" d="M318.648,64.281c0,4.107-0.844,6.563-2.53,8.14c-1.76,1.577-4.253,2.127-6.489,2.127
		c-2.127,0-4.474-0.514-5.904-1.467l0.807-2.494c1.173,0.77,3.006,1.43,5.207,1.43c3.3,0,5.72-1.723,5.72-6.233v-1.943h-0.073
		c-0.953,1.65-2.896,2.97-5.646,2.97c-4.4,0-7.553-3.74-7.553-8.653c0-6.014,3.923-9.387,8.03-9.387c3.08,0,4.73,1.577,5.537,3.043
		h0.072l0.111-2.676h2.859c-0.109,1.247-0.146,2.713-0.146,4.84V64.281z M315.422,56.141c0-0.55-0.037-1.027-0.184-1.43
		c-0.587-1.907-2.127-3.447-4.51-3.447c-3.08,0-5.28,2.604-5.28,6.71c0,3.483,1.797,6.38,5.243,6.38c2.017,0,3.813-1.247,4.474-3.3
		c0.183-0.55,0.257-1.173,0.257-1.723V56.141z"/>
	<path fill="#FFFFFF" d="M326.223,58.598c0.073,4.363,2.823,6.16,6.086,6.16c2.311,0,3.74-0.403,4.914-0.917l0.586,2.31
		c-1.137,0.513-3.116,1.137-5.939,1.137c-5.463,0-8.727-3.63-8.727-8.983s3.153-9.533,8.323-9.533c5.83,0,7.333,5.06,7.333,8.323
		c0,0.66-0.036,1.137-0.109,1.503H326.223z M335.683,56.288c0.036-2.017-0.844-5.207-4.474-5.207c-3.3,0-4.693,2.97-4.949,5.207
		H335.683z"/>
</g>
<g>
	<path fill="#007DB1" d="M62.932,49.291V9.399H46.346c0.2,0.332,0.402,0.687,0.582,1.069h14.934v38.841c0,0.052,0,0.119,0,0.211
		c-0.028,0.998-0.036,4.386-1.853,7.366c-0.831,1.339-2.653,4.196-5.948,7.604c-3.302,3.418-8.102,7.418-14.944,11.174l-0.443,0.247
		h-1.099l-0.447-0.247c-6.84-3.756-11.639-7.756-14.939-11.174c-3.299-3.408-5.115-6.266-5.953-7.604
		c-1.813-2.985-1.825-6.369-1.849-7.363c0-0.103,0-0.18,0-0.229V10.468h15.229c0.029-0.06,0.059-0.12,0.09-0.177
		c0.146-0.294,0.318-0.592,0.505-0.892H13.317V49.27c-0.002,0.059-0.004,0.146-0.004,0.253v0.019v0.01
		c0.04,0.997,0.018,4.609,2.01,7.895c0.853,1.365,2.729,4.307,6.096,7.787c3.369,3.484,8.259,7.558,15.195,11.363l0.686,0.38h1.646
		l0.686-0.38c6.936-3.806,11.825-7.879,15.197-11.363c3.365-3.48,5.239-6.422,6.087-7.779c1.999-3.293,1.979-6.906,2.016-7.902
		v-0.016v-0.02C62.932,49.42,62.932,49.343,62.932,49.291z"/>
	<path fill="#FFFFFF" d="M29.615,10.468H14.387v38.827c0,0.049,0,0.125,0,0.229c0.024,0.995,0.036,4.378,1.849,7.363
		c0.837,1.339,2.653,4.196,5.953,7.604c3.3,3.418,8.099,7.418,14.939,11.174l0.447,0.247h1.099l0.443-0.247
		c6.843-3.756,11.643-7.756,14.944-11.174c3.295-3.408,5.118-6.266,5.948-7.604c1.817-2.98,1.825-6.369,1.853-7.366
		c0-0.092,0-0.159,0-0.211V10.468H46.928c-0.18-0.382-0.382-0.737-0.582-1.069c-0.81-1.331-1.751-2.31-2.657-2.991
		c-0.801-0.61-1.551-0.993-2.148-1.234c0-0.367,0-0.74,0-0.982c0.008-0.5-0.194-0.998-0.452-1.317
		c-0.127-0.162-0.252-0.285-0.38-0.383V2.258c-0.011-0.183-0.011-0.637-0.383-1.22c-0.189-0.285-0.489-0.571-0.872-0.76
		C39.074,0.084,38.642,0,38.211,0c-0.428,0-0.859,0.084-1.239,0.278c-0.576,0.282-0.941,0.792-1.088,1.169
		c-0.151,0.385-0.158,0.664-0.162,0.787v0.291c-0.18,0.141-0.332,0.297-0.452,0.468c-0.338,0.458-0.417,0.943-0.411,1.192
		c0,0,0,0,0,0.007v1.055c-2.204,0.981-3.687,2.604-4.648,4.152c-0.187,0.3-0.359,0.598-0.505,0.892
		C29.674,10.348,29.645,10.408,29.615,10.468z"/>
	<g>
		<path fill="#007DB1" d="M25.995,25.806c-0.26-0.318-0.603-0.8-0.627-1.612c0.002-0.121-0.022-0.623-0.022-1.169
			c0-0.421,0.015-0.89,0.076-1.371c0.086-0.482,0.122-0.96,0.599-1.603c0.235-0.287,0.413-0.512,0.657-0.764
			c0.028-0.023,0.047-0.046,0.078-0.071c0,0,0.122-2.181,1.884-6.768H16.373h-0.057v17.188c1.647-0.546,5.666-1.806,9.678-2.479
			V25.806z"/>
		<path fill="#007DB1" d="M47.101,32.624c0.522-0.365,0.996-0.683,1.425-0.959c0.808-0.516,1.438-0.866,1.822-1.069
			c0.269-0.144,0.418-0.213,0.418-0.213c-1.506,0.646-2.938,1.368-4.3,2.151c-14.295,8.178-21.13,23.044-23.592,29.73
			c-0.007,0.015-0.011,0.03-0.018,0.043c0,0.004,0,0.004,0.002,0.004c0.065,0.068,0.129,0.139,0.196,0.205
			c0.082,0.092,0.165,0.18,0.25,0.266c0.001,0.009,0.007,0.012,0.012,0.018c0.021,0.023,0.042,0.041,0.058,0.063
			c0.061,0.062,0.123,0.128,0.185,0.188c0.072,0.076,0.149,0.155,0.226,0.237c0.021,0.017,0.04,0.039,0.062,0.066
			c0.021,0.014,0.039,0.035,0.058,0.057c0.05,0.048,0.1,0.1,0.15,0.143c0.074,0.076,0.146,0.153,0.224,0.229
			c0.047,0.046,0.093,0.09,0.138,0.141h0.005c0.062,0.06,0.122,0.121,0.187,0.184c0.146,0.139,0.292,0.281,0.439,0.424
			c0.061,0.059,0.122,0.117,0.186,0.176c0.183,0.178,0.373,0.354,0.57,0.533c0.072,0.062,0.138,0.121,0.206,0.19
			c0.21,0.188,0.424,0.383,0.645,0.573c0.299,0.26,0.604,0.527,0.917,0.791c0.002,0,0.002,0,0.002,0l0,0
			C30.663,46.808,41.379,36.703,47.101,32.624z"/>
		<path fill="#007DB1" d="M49.598,19.222c0,0.006,0,0.019,0,0.023c0.051,0.041,0.11,0.1,0.164,0.149
			c0.196,0.207,0.359,0.41,0.563,0.656c0.095,0.129,0.169,0.249,0.229,0.364c0.014,0.022,0.017,0.042,0.029,0.06
			c0.096,0.214,0.157,0.431,0.213,0.702c0.104,0.537,0.183,1.312,0.19,2.612c-0.006,0.196-0.012,0.345-0.012,0.405
			c-0.003,0.2-0.033,0.385-0.072,0.551c-0.002,0-0.002,0.003-0.002,0.007c-0.038,0.155-0.088,0.294-0.145,0.42
			c-0.005,0.012-0.009,0.019-0.013,0.026c-0.118,0.259-0.265,0.452-0.394,0.608v1.518c0.017,0.006,0.031,0.006,0.049,0.008v0.008
			c1.909,0.452,5.801,1.439,9.478,2.768v-0.32V12.448h-0.056h-0.155h-0.091H47.708l0,0c1.758,4.587,1.884,6.768,1.884,6.768
			S49.595,19.218,49.598,19.222z"/>
	</g>
	<g>
		<path fill="#002D62" d="M59.877,33.307V31.92c-0.011,0.008-0.021,0.015-0.033,0.015c-0.016,0-0.035-0.007-0.051-0.015
			c-1.407-0.528-2.874-1.005-4.27-1.425c-19.21,11.815-17.435,42.143-17.35,43.421c13.319-7.312,18.531-15.482,20.153-18.078
			c1.682-2.695,1.55-6.524,1.55-6.524V33.307z"/>
		<path fill="#002D62" d="M38.05,1.526c0,0-0.968,0.013-0.968,0.731v1.179c0,0-0.835,0.229-0.835,0.755c0,0.161,0,0.469,0,1.915
			l0.004,0.161v0.013c-0.359,0.124-0.75,0.274-1.151,0.465c-0.48,0.198-1.01,0.528-1.534,0.903c-0.047,0.049-0.09,0.096-0.142,0.138
			c-0.013,0.016-0.029,0.027-0.047,0.04l-0.007,0.021c-1.532,1.432-2.561,3.046-3.145,4.6c-0.245,0.66-0.412,1.305-0.498,1.917
			c-0.084,0.059-0.209,0.14-0.365,0.239c-0.307,0.191-0.279,0.845-0.279,0.845c0.042-0.029,0.085-0.057,0.128-0.085
			c0.421-0.276,0.894-0.526,1.401-0.745c2.784-1.18,6.528-1.468,7.48-1.522c0.944,0.054,4.612,0.334,7.388,1.486
			c0.538,0.225,1.043,0.483,1.494,0.781c0.039,0.023,0.085,0.051,0.125,0.084l0.006,0.001h0.002l-0.002-0.001
			c0.002-0.028,0.021-0.654-0.279-0.843c-0.162-0.102-0.287-0.186-0.365-0.242c-0.086-0.612-0.257-1.254-0.501-1.914
			c-0.604-1.62-1.698-3.318-3.343-4.799c-0.605-0.438-1.224-0.818-1.758-0.994c0.089,0.084,0.188,0.162,0.284,0.254
			c0.953,0.865,2.148,2.254,2.764,4.265c0.08,0.256,0.142,0.527,0.206,0.808c0.031,0.158,0.062,0.309,0.086,0.466
			c0.057,0.343,0.095,0.696,0.112,1.067c-0.595-0.205-1.201-0.366-1.792-0.503c-0.011-0.165-0.032-0.378-0.051-0.564
			c-0.006-0.066-0.013-0.127-0.019-0.182c-0.196-1.359-0.681-2.639-1.253-3.69c-0.025-0.041-0.048-0.076-0.071-0.117
			c-0.583-1.038-1.246-1.838-1.783-2.236h0.515V6.177c0-0.153,0-0.445,0-0.767c0-0.43,0-0.923,0-1.219
			c0-0.526-0.837-0.755-0.837-0.755V2.258C39.017,1.54,38.05,1.526,38.05,1.526l0.003,0.061 M36.538,12.452c0,0,0,0,0-0.004
			c0.019-0.471,0.159-3.125,0.905-5.007c0.087-0.212,0.175-0.409,0.272-0.595c0.114-0.215,0.238-0.414,0.375-0.581
			c0,0,0.094,0.06,0.235,0.265c0.144,0.211,0.341,0.565,0.535,1.153c0.317,0.914,0.636,2.399,0.78,4.765c0,0.004,0,0.004,0,0.004
			c0,0.03,0.003,0.054,0.005,0.079c0,0-0.184-0.042-0.502-0.079c-0.456-0.046-1.19-0.087-2.058,0
			c-0.179,0.025-0.359,0.047-0.547,0.079C36.538,12.531,36.538,12.503,36.538,12.452z"/>
		<path fill="#002D62" d="M46.664,16.36c-0.155-0.092-0.32-0.188-0.491-0.274c-0.196-0.105-0.398-0.208-0.611-0.31
			c-2.519-1.101-5.878-1.34-7.322-1.373v-0.009c-0.044,0-0.096,0-0.148,0c-0.047,0-0.103,0-0.147,0v0.009
			c-1.439,0.033-4.808,0.272-7.322,1.373c-0.246,0.113-0.479,0.235-0.702,0.357c-0.137,0.076-0.271,0.146-0.403,0.227
			c-0.119,0.081-0.234,0.16-0.347,0.244c-0.052,0.034-0.1,0.075-0.148,0.109c-0.504,0.402-0.766,0.845-0.743,1.136l-0.004,0.002
			c0,0.004-0.004,0.198,0.157,0.265c0.034,0.017,0.071,0.029,0.12,0.029c0,0,0,0,0.003,0h0.001c0.021,0,0.325,0,0.499,0
			l-0.047,1.434h0.002c-0.181,0.098-0.361,0.191-0.54,0.292c-0.012,0.004-0.027,0.017-0.038,0.021
			c-0.549,0.314-1.283,0.857-1.351,1.526c0,0,0.004,0.021,0.004,0.031c0,0,0,0.013,0,0.023c0,0,0,0,0,0.002c0,0.01,0,0.01,0,0.01
			c0,0.008,0,0.01,0.002,0.015c0,0.018,0,0.024,0.004,0.037v0.007c0.001,0.004,0.001,0.011,0.003,0.02
			c0.003,0.013,0.004,0.021,0.009,0.028l0,0c0.005,0.01,0.005,0.016,0.005,0.027c0.003,0.004,0.007,0.015,0.007,0.022
			c0.004,0.005,0.006,0.011,0.011,0.013l0.002,0.005c0,0.009,0.006,0.02,0.007,0.028c0.008,0,0.013,0.008,0.014,0.012
			c0.008,0,0.015,0.007,0.023,0.014c0.004,0.005,0.009,0.005,0.013,0.01c0.009,0.002,0.018,0.004,0.028,0.008
			c0.004,0,0.008,0,0.014,0c0.018,0.008,0.036,0,0.053-0.006c0.026-0.006,0.052-0.006,0.075-0.006
			c0.321-0.226,0.651-0.438,0.985-0.63c3.883-2.268,8.379-2.424,9.602-2.415v0.001c0.031,0,0.087-0.001,0.147-0.001
			c0.064,0,0.114,0.001,0.148,0.001v-0.001c1.205-0.009,5.593,0.144,9.44,2.321c0.393,0.218,0.774,0.461,1.148,0.724
			c0.021,0,0.045,0,0.075,0.006c0.017,0.006,0.034,0.014,0.054,0.006c0.006,0,0.008,0,0.015,0c0.011-0.004,0.02-0.006,0.025-0.008
			c0.012-0.004,0.012-0.004,0.019-0.01c0-0.004,0.003-0.004,0.003-0.004c0.004-0.003,0.011-0.01,0.012-0.01
			c0.006-0.003,0.008-0.012,0.013-0.012c0.006-0.008,0.014-0.02,0.018-0.028c0-0.005,0.003-0.013,0.003-0.018h0.004
			c0-0.007,0.009-0.018,0.011-0.022c0-0.011,0.002-0.017,0.002-0.027l0,0c0.007-0.007,0.007-0.015,0.007-0.028
			c0.003-0.009,0.003-0.016,0.003-0.02c0,0,0-0.007,0.002-0.007c0-0.013,0-0.019,0.005-0.037c0,0,0.002-0.007,0.002-0.015
			c0,0,0,0,0-0.01c0-0.002,0-0.002,0-0.002c0-0.01,0-0.012,0-0.012c0-0.021,0-0.034,0-0.034c-0.063-0.677-0.805-1.22-1.351-1.534
			c-0.011-0.005-0.022-0.017-0.036-0.021c-0.367-0.207-0.742-0.392-1.119-0.559c-0.278-0.126-0.56-0.246-0.842-0.357v0.005
			l-1.241-0.438c-2.99-0.911-5.703-0.911-6.423-0.888c-0.222-0.011-0.626-0.011-1.171,0.01v-0.551v-0.243v-1.417h0.307l0.84,0.312
			l0.833-0.337h0.299v1.688c0.518,0.03,1.017,0.073,1.495,0.127V15.97l1.149-0.316l0.692,0.523v1.333
			c0.485,0.093,0.931,0.204,1.349,0.315v-0.749l1.168-0.485l0.703,0.525v1.293c0.417,0.155,0.735,0.287,0.969,0.39
			c0.03,0.018,0.064,0.033,0.093,0.047c0.107,0.047,0.215,0.093,0.32,0.15l-0.013-0.852c0.171,0,0.469,0,0.485,0
			c0.002,0,0.012,0,0.015,0h0.004c0.004,0,0.009,0,0.015-0.006c0.044,0,0.078-0.012,0.107-0.028c0.056-0.031,0.094-0.076,0.115-0.12
			c0.151-0.266-0.109-0.802-0.703-1.278c-0.025-0.018-0.053-0.034-0.079-0.057C46.95,16.551,46.813,16.456,46.664,16.36z"/>
		<path fill="#002D62" d="M42.839,32.129c1.652-0.876,3.25-1.651,4.757-2.333c0.068-0.035,0.135-0.063,0.198-0.089
			c0.623-0.287,1.224-0.543,1.808-0.787c0.113-0.051,0.23-0.099,0.339-0.143c-0.056-0.017-0.506-0.14-1.274-0.306v-3.3v-0.003
			v-0.051c0,0,0.01-0.009,0.031-0.02c-0.05-0.022-0.058-0.034,0.003-0.052c0.047-0.012,0.098-0.038,0.148-0.069
			c0.262-0.238,0.671-0.755,0.298-1.453c-0.004-0.004-0.008-0.011-0.008-0.015c-0.11-0.187-0.25-0.37-0.412-0.542
			c-0.281-0.254-0.605-0.484-0.949-0.699c-1.685-1.044-3.966-1.618-5.955-1.924c-1.171-0.157-2.391-0.247-3.584-0.278h-0.296
			c-1.197,0.031-2.413,0.121-3.587,0.278c-2.015,0.314-4.333,0.9-6.021,1.969c-0.32,0.2-0.616,0.418-0.881,0.654
			c-0.163,0.177-0.307,0.361-0.415,0.557c-0.006,0.009-0.006,0.012-0.008,0.017c-0.362,0.681,0.043,1.204,0.302,1.436
			c0.053,0.031,0.103,0.057,0.15,0.069c0.059,0.018,0.053,0.03,0.002,0.052c0.018,0.011,0.035,0.02,0.035,0.02v0.051v0.003v3.296
			c-5.703,0.939-9.974,2.343-11.148,2.754l-0.057,0.011v17.665c0,0-0.044,3.256,1.003,5.766
			C23.456,44.319,33.932,36.833,42.839,32.129z M45.166,23.259v-0.31c0.59,0.223,1.172,0.47,1.752,0.746v0.312v4.099v0.03
			c-0.318-0.054-0.655-0.115-1.018-0.168v-0.009v-3.052c0,0,0.018-0.584-0.734-0.584V23.259z M41.075,22.189v-0.13
			c0.66,0.103,1.323,0.23,1.979,0.404v0.125v5.036c-0.347-0.039-0.699-0.067-1.065-0.094v-3.375c0,0-0.072-0.554-0.914-0.554V22.189
			z M37.069,21.989c0.68-0.036,1.358-0.036,2.037-0.002v4.715v0.694c-0.657-0.016-1.337-0.019-2.037-0.003V21.989z"/>
	</g>
</g>
</svg>
